<svg width="136" height="28" viewBox="0 0 136 28" fill="none" xmlns="http://www.w3.org/2000/svg">
<g clip-path="url(#clip0_89_4703)">
<path d="M12.3333 0.875C5.98207 0.875 0.833344 6.08902 0.833344 12.5208C0.833344 18.9527 5.98207 24.1667 12.3333 24.1667H17.3333C17.8056 24.1667 18.2713 24.1379 18.7286 24.0819L22.2086 26.9012C22.8634 27.4316 23.8333 26.9596 23.8333 26.1104V22.1293C26.8529 20.0305 28.8333 16.5099 28.8333 12.5208C28.8333 6.08902 23.6846 0.875 17.3333 0.875H12.3333Z" fill="url(#paint0_linear_89_4703)"/>
<path fill-rule="evenodd" clip-rule="evenodd" d="M6.08334 11.9941C6.08334 8.75268 8.69502 6.125 11.9167 6.125H17.75C20.9717 6.125 23.5833 8.75268 23.5833 11.9941V12.9723C23.5833 15.1447 22.4103 17.0414 20.6667 18.0562V20.314C20.6667 20.8945 19.9937 21.2116 19.5504 20.84L17.1667 18.8413H11.9167C8.69502 18.8413 6.08334 16.2137 6.08334 12.9723V11.9941ZM11.9167 14.4395C12.9906 14.4395 13.8611 13.5636 13.8611 12.4832C13.8611 11.4027 12.9906 10.5268 11.9167 10.5268C10.8428 10.5268 9.97223 11.4027 9.97223 12.4832C9.97223 13.5636 10.8428 14.4395 11.9167 14.4395ZM17.75 14.4395C18.8239 14.4395 19.6945 13.5636 19.6945 12.4832C19.6945 11.4027 18.8239 10.5268 17.75 10.5268C16.6761 10.5268 15.8056 11.4027 15.8056 12.4832C15.8056 13.5636 16.6761 14.4395 17.75 14.4395Z" fill="white"/>
</g>
<path d="M47.7793 17.606H42.7753L41.9473 20H39.3013L43.8193 7.418H46.7533L51.2713 20H48.6073L47.7793 17.606ZM47.0953 15.59L45.2773 10.334L43.4593 15.59H47.0953ZM56.7761 20.162C55.9601 20.162 55.2281 20.018 54.5801 19.73C53.9321 19.43 53.4161 19.028 53.0321 18.524C52.6601 18.02 52.4561 17.462 52.4201 16.85H54.9581C55.0061 17.234 55.1921 17.552 55.5161 17.804C55.8521 18.056 56.2661 18.182 56.7581 18.182C57.2381 18.182 57.6101 18.086 57.8741 17.894C58.1501 17.702 58.2881 17.456 58.2881 17.156C58.2881 16.832 58.1201 16.592 57.7841 16.436C57.4601 16.268 56.9381 16.088 56.2181 15.896C55.4741 15.716 54.8621 15.53 54.3821 15.338C53.9141 15.146 53.5061 14.852 53.1581 14.456C52.8221 14.06 52.6541 13.526 52.6541 12.854C52.6541 12.302 52.8101 11.798 53.1221 11.342C53.4461 10.886 53.9021 10.526 54.4901 10.262C55.0901 9.998 55.7921 9.866 56.5961 9.866C57.7841 9.866 58.7321 10.166 59.4401 10.766C60.1481 11.354 60.5381 12.152 60.6101 13.16H58.1981C58.1621 12.764 57.9941 12.452 57.6941 12.224C57.4061 11.984 57.0161 11.864 56.5241 11.864C56.0681 11.864 55.7141 11.948 55.4621 12.116C55.2221 12.284 55.1021 12.518 55.1021 12.818C55.1021 13.154 55.2701 13.412 55.6061 13.592C55.9421 13.76 56.4641 13.934 57.1721 14.114C57.8921 14.294 58.4861 14.48 58.9541 14.672C59.4221 14.864 59.8241 15.164 60.1601 15.572C60.5081 15.968 60.6881 16.496 60.7001 17.156C60.7001 17.732 60.5381 18.248 60.2141 18.704C59.9021 19.16 59.4461 19.52 58.8461 19.784C58.2581 20.036 57.5681 20.162 56.7761 20.162ZM68.6727 20L65.2887 15.752V20H62.7687V6.68H65.2887V14.258L68.6367 10.028H71.9127L67.5207 15.032L71.9487 20H68.6727ZM82.0284 11.216C81.7404 10.688 81.3444 10.286 80.8404 10.01C80.3364 9.734 79.7484 9.596 79.0764 9.596C78.3324 9.596 77.6724 9.764 77.0964 10.1C76.5204 10.436 76.0704 10.916 75.7464 11.54C75.4224 12.164 75.2604 12.884 75.2604 13.7C75.2604 14.54 75.4224 15.272 75.7464 15.896C76.0824 16.52 76.5444 17 77.1324 17.336C77.7204 17.672 78.4044 17.84 79.1844 17.84C80.1444 17.84 80.9304 17.588 81.5424 17.084C82.1544 16.568 82.5564 15.854 82.7484 14.942H78.4284V13.016H85.2324V15.212C85.0644 16.088 84.7044 16.898 84.1524 17.642C83.6004 18.386 82.8864 18.986 82.0104 19.442C81.1464 19.886 80.1744 20.108 79.0944 20.108C77.8824 20.108 76.7844 19.838 75.8004 19.298C74.8284 18.746 74.0604 17.984 73.4964 17.012C72.9444 16.04 72.6684 14.936 72.6684 13.7C72.6684 12.464 72.9444 11.36 73.4964 10.388C74.0604 9.404 74.8284 8.642 75.8004 8.102C76.7844 7.55 77.8764 7.274 79.0764 7.274C80.4924 7.274 81.7224 7.622 82.7664 8.318C83.8104 9.002 84.5304 9.968 84.9264 11.216H82.0284ZM91.5248 20.162C90.5648 20.162 89.7008 19.952 88.9328 19.532C88.1648 19.1 87.5588 18.494 87.1148 17.714C86.6828 16.934 86.4668 16.034 86.4668 15.014C86.4668 13.994 86.6888 13.094 87.1328 12.314C87.5888 11.534 88.2068 10.934 88.9868 10.514C89.7668 10.082 90.6368 9.866 91.5968 9.866C92.5568 9.866 93.4268 10.082 94.2068 10.514C94.9868 10.934 95.5988 11.534 96.0428 12.314C96.4988 13.094 96.7268 13.994 96.7268 15.014C96.7268 16.034 96.4928 16.934 96.0248 17.714C95.5688 18.494 94.9448 19.1 94.1528 19.532C93.3728 19.952 92.4968 20.162 91.5248 20.162ZM91.5248 17.966C91.9808 17.966 92.4068 17.858 92.8028 17.642C93.2108 17.414 93.5348 17.078 93.7748 16.634C94.0148 16.19 94.1348 15.65 94.1348 15.014C94.1348 14.066 93.8828 13.34 93.3788 12.836C92.8868 12.32 92.2808 12.062 91.5608 12.062C90.8408 12.062 90.2348 12.32 89.7428 12.836C89.2628 13.34 89.0228 14.066 89.0228 15.014C89.0228 15.962 89.2568 16.694 89.7248 17.21C90.2048 17.714 90.8048 17.966 91.5248 17.966ZM102.733 17.678L105.253 10.028H107.935L104.245 20H101.185L97.5133 10.028H100.213L102.733 17.678ZM123.049 7.436V20H120.529V11.828L117.163 20H115.255L111.871 11.828V20H109.351V7.436H112.213L116.209 16.778L120.205 7.436H123.049ZM135.53 7.436L131.282 15.626V20H128.762V15.626L124.496 7.436H127.34L130.04 13.178L132.722 7.436H135.53Z" fill="#18181B"/>
<defs>
<linearGradient id="paint0_linear_89_4703" x1="0.833344" y1="0.875" x2="27.3609" y2="24.5872" gradientUnits="userSpaceOnUse">
<stop stopColor="#B379FF"/>
<stop offset="1" stopColor="#702FF9"/>
</linearGradient>
<clipPath id="clip0_89_4703">
<rect width="28" height="28" fill="white" transform="translate(0.833344)"/>
</clipPath>
</defs>
</svg>
